<svg width="16" height="16" viewBox="0 0 16 16" fill="none" xmlns="http://www.w3.org/2000/svg">
<path opacity="0.5" d="M15 8C15 11.866 11.866 15 8 15C4.13401 15 1 11.866 1 8C1 4.13401 4.13401 1 8 1C11.866 1 15 4.13401 15 8Z" stroke="#8099A2" stroke-width="2"/>
<rect x="7" y="9.72058" width="2" height="2" rx="1" fill="#8099A2"/>
<path d="M6.4707 6.29412C6.4707 6.11364 6.50137 5.9404 6.55773 5.77941C6.62487 5.58762 6.72848 5.41322 6.86014 5.26471C7.14018 4.94881 7.54715 4.75 8.00011 4.75C8.45308 4.75 8.86004 4.94881 9.14009 5.26471C9.27175 5.41322 9.37536 5.58762 9.4425 5.77941C9.49886 5.9404 9.52953 6.11364 9.52953 6.29412C9.52953 6.47459 9.49886 6.64783 9.4425 6.80882C9.37536 7.00061 9.14009 7.32353 9.14009 7.32353C9.14009 7.32353 8.4453 8.08537 8.00011 8.57353" stroke="#8099A2" stroke-width="1.5" stroke-linecap="round"/>
</svg>
